<svg width="80" height="80" viewBox="0 0 80 80" fill="none" xmlns="http://www.w3.org/2000/svg">
<path d="M10 14C30.13 14 50.26 14 71 14C71 15.98 71 17.96 71 20C71.66 20 72.32 20 73 20C73 21.98 73 23.96 73 26C73.66 26 74.32 26 75 26C75 39.2 75 52.4 75 66C51.9 66 28.8 66 5 66C5 52.8 5 39.6 5 26C5.66 26 6.32 26 7 26C7 24.02 7 22.04 7 20C7.99 20 8.98 20 10 20C10 18.02 10 16.04 10 14ZM12 16C12 17.32 12 18.64 12 20C30.81 20 49.62 20 69 20C69 18.68 69 17.36 69 16C50.19 16 31.38 16 12 16ZM9 22C9 23.32 9 24.64 9 26C29.46 26 49.92 26 71 26C71 24.68 71 23.36 71 22C50.54 22 30.08 22 9 22ZM7 28C7 39.88 7 51.76 7 64C28.78 64 50.56 64 73 64C73 52.12 73 40.24 73 28C51.22 28 29.44 28 7 28Z" fill="white"/>
<path d="M60 41.875C63 42 63 42 64 43C64.125 46 64.125 46 64 49C63 50 63 50 60 50.125C57 50 57 50 56 49C55.875 46 55.875 46 56 43C57 42 57 42 60 41.875ZM59 45C59 45.66 59 46.32 59 47C59.66 47 60.32 47 61 47C61 46.34 61 45.68 61 45C60.34 45 59.68 45 59 45Z" fill="#A305FF"/>
<path d="M19 41.875C22 42 22 42 23 43C23.125 46 23.125 46 23 49C22 50 22 50 19 50.125C16 50 16 50 15 49C14.875 46 14.875 46 15 43C16 42 16 42 19 41.875ZM18 45C18 45.66 18 46.32 18 47C18.66 47 19.32 47 20 47C20 46.34 20 45.68 20 45C19.34 45 18.68 45 18 45Z" fill="#A305FF"/>
<path d="M63 60C63.66 60 64.32 60 65 60C65 60.66 65 61.32 65 62C64.34 62 63.68 62 63 62C63 61.34 63 60.68 63 60Z" fill="#D609FF"/>
<path d="M60 60C60.66 60 61.32 60 62 60C62 60.66 62 61.32 62 62C61.34 62 60.68 62 60 62C60 61.34 60 60.68 60 60Z" fill="#D609FF"/>
<path d="M57 60C57.66 60 58.32 60 59 60C59 60.66 59 61.32 59 62C58.34 62 57.68 62 57 62C57 61.34 57 60.68 57 60Z" fill="#D609FF"/>
<path d="M54 60C54.66 60 55.32 60 56 60C56 60.66 56 61.32 56 62C55.34 62 54.68 62 54 62C54 61.34 54 60.68 54 60Z" fill="#D609FF"/>
<path d="M51 60C51.66 60 52.32 60 53 60C53 60.66 53 61.32 53 62C52.34 62 51.68 62 51 62C51 61.34 51 60.68 51 60Z" fill="#D609FF"/>
<path d="M48 60C48.66 60 49.32 60 50 60C50 60.66 50 61.32 50 62C49.34 62 48.68 62 48 62C48 61.34 48 60.68 48 60Z" fill="#D609FF"/>
<path d="M45 60C45.66 60 46.32 60 47 60C47 60.66 47 61.32 47 62C46.34 62 45.68 62 45 62C45 61.34 45 60.68 45 60Z" fill="#D609FF"/>
<path d="M42 60C42.66 60 43.32 60 44 60C44 60.66 44 61.32 44 62C43.34 62 42.68 62 42 62C42 61.34 42 60.68 42 60Z" fill="#D609FF"/>
<path d="M39 60C39.66 60 40.32 60 41 60C41 60.66 41 61.32 41 62C40.34 62 39.68 62 39 62C39 61.34 39 60.68 39 60Z" fill="#D609FF"/>
<path d="M36 60C36.66 60 37.32 60 38 60C38 60.66 38 61.32 38 62C37.34 62 36.68 62 36 62C36 61.34 36 60.68 36 60Z" fill="#D609FF"/>
<path d="M33 60C33.66 60 34.32 60 35 60C35 60.66 35 61.32 35 62C34.34 62 33.68 62 33 62C33 61.34 33 60.68 33 60Z" fill="#D609FF"/>
<path d="M30 60C30.66 60 31.32 60 32 60C32 60.66 32 61.32 32 62C31.34 62 30.68 62 30 62C30 61.34 30 60.68 30 60Z" fill="#D609FF"/>
<path d="M27 60C27.66 60 28.32 60 29 60C29 60.66 29 61.32 29 62C28.34 62 27.68 62 27 62C27 61.34 27 60.68 27 60Z" fill="#D609FF"/>
<path d="M24 60C24.66 60 25.32 60 26 60C26 60.66 26 61.32 26 62C25.34 62 24.68 62 24 62C24 61.34 24 60.68 24 60Z" fill="#D609FF"/>
<path d="M21 60C21.66 60 22.32 60 23 60C23 60.66 23 61.32 23 62C22.34 62 21.68 62 21 62C21 61.34 21 60.68 21 60Z" fill="#D609FF"/>
<path d="M18 60C18.66 60 19.32 60 20 60C20 60.66 20 61.32 20 62C19.34 62 18.68 62 18 62C18 61.34 18 60.68 18 60Z" fill="#D609FF"/>
<path d="M15 60C15.66 60 16.32 60 17 60C17 60.66 17 61.32 17 62C16.34 62 15.68 62 15 62C15 61.34 15 60.68 15 60Z" fill="#D609FF"/>
<path d="M64 57C64.66 57 65.32 57 66 57C66 57.66 66 58.32 66 59C65.34 59 64.68 59 64 59C64 58.34 64 57.68 64 57Z" fill="#D609FF"/>
<path d="M14 57C14.66 57 15.32 57 16 57C16 57.66 16 58.32 16 59C15.34 59 14.68 59 14 59C14 58.34 14 57.68 14 57Z" fill="#D609FF"/>
<path d="M66 55C66.66 55 67.32 55 68 55C68 55.66 68 56.32 68 57C67.34 57 66.68 57 66 57C66 56.34 66 55.68 66 55Z" fill="#D609FF"/>
<path d="M12 55C12.66 55 13.32 55 14 55C14 55.66 14 56.32 14 57C13.34 57 12.68 57 12 57C12 56.34 12 55.68 12 55Z" fill="#D609FF"/>
<path d="M69 54C69.66 54 70.32 54 71 54C71 54.66 71 55.32 71 56C70.34 56 69.68 56 69 56C69 55.34 69 54.68 69 54Z" fill="#D609FF"/>
<path d="M9 54C9.66 54 10.32 54 11 54C11 54.66 11 55.32 11 56C10.34 56 9.68 56 9 56C9 55.34 9 54.68 9 54Z" fill="#D609FF"/>
<path d="M69 51C69.66 51 70.32 51 71 51C71 51.66 71 52.32 71 53C70.34 53 69.68 53 69 53C69 52.34 69 51.68 69 51Z" fill="#D609FF"/>
<path d="M9 51C9.66 51 10.32 51 11 51C11 51.66 11 52.32 11 53C10.34 53 9.68 53 9 53C9 52.34 9 51.68 9 51Z" fill="#D609FF"/>
<path d="M69 48C69.66 48 70.32 48 71 48C71 48.66 71 49.32 71 50C70.34 50 69.68 50 69 50C69 49.34 69 48.68 69 48Z" fill="#D609FF"/>
<path d="M9 48C9.66 48 10.32 48 11 48C11 48.66 11 49.32 11 50C10.34 50 9.68 50 9 50C9 49.34 9 48.68 9 48Z" fill="#D609FF"/>
<path d="M69 45C69.66 45 70.32 45 71 45C71 45.66 71 46.32 71 47C70.34 47 69.68 47 69 47C69 46.34 69 45.68 69 45Z" fill="#D609FF"/>
<path d="M9 45C9.66 45 10.32 45 11 45C11 45.66 11 46.32 11 47C10.34 47 9.68 47 9 47C9 46.34 9 45.68 9 45Z" fill="#D609FF"/>
<path d="M69 42C69.66 42 70.32 42 71 42C71 42.66 71 43.32 71 44C70.34 44 69.68 44 69 44C69 43.34 69 42.68 69 42Z" fill="#D609FF"/>
<path d="M9 42C9.66 42 10.32 42 11 42C11 42.66 11 43.32 11 44C10.34 44 9.68 44 9 44C9 43.34 9 42.68 9 42Z" fill="#D609FF"/>
<path d="M69 39C69.66 39 70.32 39 71 39C71 39.66 71 40.32 71 41C70.34 41 69.68 41 69 41C69 40.34 69 39.68 69 39Z" fill="#D609FF"/>
<path d="M9 39C9.66 39 10.32 39 11 39C11 39.66 11 40.32 11 41C10.34 41 9.68 41 9 41C9 40.34 9 39.68 9 39Z" fill="#D609FF"/>
<path d="M69 36C69.66 36 70.32 36 71 36C71 36.66 71 37.32 71 38C70.34 38 69.68 38 69 38C69 37.34 69 36.68 69 36Z" fill="#D609FF"/>
<path d="M9 36C9.66 36 10.32 36 11 36C11 36.66 11 37.32 11 38C10.34 38 9.68 38 9 38C9 37.34 9 36.68 9 36Z" fill="#D609FF"/>
<path d="M66 35C66.66 35 67.32 35 68 35C68 35.66 68 36.32 68 37C67.34 37 66.68 37 66 37C66 36.34 66 35.68 66 35Z" fill="#D609FF"/>
<path d="M12 35C12.66 35 13.32 35 14 35C14 35.66 14 36.32 14 37C13.34 37 12.68 37 12 37C12 36.34 12 35.68 12 35Z" fill="#D609FF"/>
<path d="M64 33C64.66 33 65.32 33 66 33C66 33.66 66 34.32 66 35C65.34 35 64.68 35 64 35C64 34.34 64 33.68 64 33Z" fill="#D609FF"/>
<path d="M14 33C14.66 33 15.32 33 16 33C16 33.66 16 34.32 16 35C15.34 35 14.68 35 14 35C14 34.34 14 33.68 14 33Z" fill="#D609FF"/>
<path d="M63 30C63.66 30 64.32 30 65 30C65 30.66 65 31.32 65 32C64.34 32 63.68 32 63 32C63 31.34 63 30.68 63 30Z" fill="#D609FF"/>
<path d="M60 30C60.66 30 61.32 30 62 30C62 30.66 62 31.32 62 32C61.34 32 60.68 32 60 32C60 31.34 60 30.68 60 30Z" fill="#D609FF"/>
<path d="M57 30C57.66 30 58.32 30 59 30C59 30.66 59 31.32 59 32C58.34 32 57.68 32 57 32C57 31.34 57 30.68 57 30Z" fill="#D609FF"/>
<path d="M54 30C54.66 30 55.32 30 56 30C56 30.66 56 31.32 56 32C55.34 32 54.68 32 54 32C54 31.34 54 30.68 54 30Z" fill="#D609FF"/>
<path d="M51 30C51.66 30 52.32 30 53 30C53 30.66 53 31.32 53 32C52.34 32 51.68 32 51 32C51 31.34 51 30.68 51 30Z" fill="#D609FF"/>
<path d="M48 30C48.66 30 49.32 30 50 30C50 30.66 50 31.32 50 32C49.34 32 48.68 32 48 32C48 31.34 48 30.68 48 30Z" fill="#D609FF"/>
<path d="M45 30C45.66 30 46.32 30 47 30C47 30.66 47 31.32 47 32C46.34 32 45.68 32 45 32C45 31.34 45 30.68 45 30Z" fill="#D609FF"/>
<path d="M42 30C42.66 30 43.32 30 44 30C44 30.66 44 31.32 44 32C43.34 32 42.68 32 42 32C42 31.34 42 30.68 42 30Z" fill="#D609FF"/>
<path d="M39 30C39.66 30 40.32 30 41 30C41 30.66 41 31.32 41 32C40.34 32 39.68 32 39 32C39 31.34 39 30.68 39 30Z" fill="#D609FF"/>
<path d="M36 30C36.66 30 37.32 30 38 30C38 30.66 38 31.32 38 32C37.34 32 36.68 32 36 32C36 31.34 36 30.68 36 30Z" fill="#D609FF"/>
<path d="M33 30C33.66 30 34.32 30 35 30C35 30.66 35 31.32 35 32C34.34 32 33.68 32 33 32C33 31.34 33 30.68 33 30Z" fill="#D609FF"/>
<path d="M30 30C30.66 30 31.32 30 32 30C32 30.66 32 31.32 32 32C31.34 32 30.68 32 30 32C30 31.34 30 30.68 30 30Z" fill="#D609FF"/>
<path d="M27 30C27.66 30 28.32 30 29 30C29 30.66 29 31.32 29 32C28.34 32 27.68 32 27 32C27 31.34 27 30.68 27 30Z" fill="#D609FF"/>
<path d="M24 30C24.66 30 25.32 30 26 30C26 30.66 26 31.32 26 32C25.34 32 24.68 32 24 32C24 31.34 24 30.68 24 30Z" fill="#D609FF"/>
<path d="M21 30C21.66 30 22.32 30 23 30C23 30.66 23 31.32 23 32C22.34 32 21.68 32 21 32C21 31.34 21 30.68 21 30Z" fill="#D609FF"/>
<path d="M18 30C18.66 30 19.32 30 20 30C20 30.66 20 31.32 20 32C19.34 32 18.68 32 18 32C18 31.34 18 30.68 18 30Z" fill="#D609FF"/>
<path d="M15 30C15.66 30 16.32 30 17 30C17 30.66 17 31.32 17 32C16.34 32 15.68 32 15 32C15 31.34 15 30.68 15 30Z" fill="#D609FF"/>
<path d="M39.9684 37.0202C40.4409 37.0191 40.913 37.0101 41.3855 37.0008C44.1082 36.9751 45.9129 37.5856 47.91 39.7359C49.7409 41.9591 50.0558 44.1989 49.9926 47.1303C49.8744 49.7366 48.7456 51.4168 47.0768 53.16C45.1958 54.8017 43.3484 54.9804 41.0316 54.9798C40.5591 54.9809 40.087 54.9899 39.6145 54.9992C36.8918 55.0249 35.0871 54.4144 33.09 52.2641C31.2591 50.0409 30.9442 47.8011 31.0074 44.8697C31.1256 42.2634 32.2544 40.5832 33.9232 38.84C35.8042 37.1983 37.6516 37.0196 39.9684 37.0202ZM33.3538 41.2646C32.175 43.3279 31.9284 45.2935 32.1694 47.7283C32.5846 49.7371 33.5685 51.3982 35.0879 52.5601C36.9783 53.7858 38.9744 54.0435 41.1268 53.4937C42.9655 52.7413 44.2338 51.4952 45.2134 49.5954C46.0534 47.5188 46.1284 45.3443 45.5251 43.1751C44.8629 41.5381 44.022 40.3312 42.6923 39.3338C42.5512 39.2271 42.4102 39.1205 42.2649 39.0107C39.2924 37.1678 35.3744 38.3156 33.3538 41.2646ZM43.7884 38.5931C43.9117 38.7458 43.9117 38.7458 44.0376 38.9017C46.2176 41.6723 46.8443 44.0433 46.6782 47.7037C46.4968 50.0597 45.2158 51.5456 43.7884 53.16C44.4223 53.4868 44.4223 53.4868 44.9359 53.1851C46.6698 52.0389 48.1066 50.5247 48.7347 48.3098C49.1529 45.7739 48.9133 43.4948 47.6796 41.3196C46.8355 40.0799 45.6935 39.2532 44.4461 38.5931C44.229 38.5931 44.012 38.5931 43.7884 38.5931Z" fill="white"/>
<path d="M38.4715 41C38.7932 41 39.1149 41 39.4464 41C39.4464 41.33 39.4464 41.66 39.4464 42C39.6726 42.0567 39.8988 42.1134 40.1318 42.1719C41.0413 42.556 41.2507 42.8408 41.6399 43.75C41.6399 43.9975 41.6399 44.245 41.6399 44.5C41.2377 44.5 40.8356 44.5 40.4213 44.5C40.3408 44.17 40.2604 43.84 40.1775 43.5C39.3733 43.5 38.569 43.5 37.7403 43.5C37.7403 43.995 37.7403 44.49 37.7403 45C38.71 45.5222 39.6692 45.9367 40.7059 46.2891C41.2412 46.5419 41.5274 46.7665 41.8836 47.25C42.0518 48.0981 42.0253 48.8984 41.8836 49.75C41.3002 50.5878 40.9413 50.9181 39.9795 51.2031C39.7156 51.2263 39.7156 51.2263 39.4464 51.25C39.4464 51.4975 39.4464 51.745 39.4464 52C39.1247 52 38.803 52 38.4715 52C38.3508 51.6287 38.3508 51.6287 38.2278 51.25C37.9965 51.1314 37.7653 51.0128 37.5271 50.8906C36.7532 50.4937 36.4341 50.2746 36.0343 49.5C35.9886 48.8125 35.9886 48.8125 36.0343 48.25C36.4364 48.25 36.8386 48.25 37.2529 48.25C37.3333 48.6625 37.4137 49.075 37.4966 49.5C37.8464 49.5557 38.1969 49.6069 38.5477 49.6562C38.7428 49.6853 38.9379 49.7143 39.1389 49.7441C39.7601 49.8038 39.7601 49.8038 40.4213 49.25C40.4823 48.604 40.4823 48.604 40.4213 48C39.4516 47.4778 38.4924 47.0633 37.4557 46.7109C36.9242 46.4599 36.6347 46.2268 36.278 45.75C36.053 44.6398 36.1492 43.7348 36.6893 42.75C37.3041 42.2046 37.6704 42.0685 38.4715 42C38.4715 41.67 38.4715 41.34 38.4715 41Z" fill="white"/>
</svg>
