<svg width="800" height="800" viewBox="0 0 800 800" fill="none" xmlns="http://www.w3.org/2000/svg">
<path d="M677.676 121.945C625.891 95.8095 570.519 76.8154 512.63 66C505.52 79.865 497.214 98.5136 491.488 113.349C429.95 103.366 368.978 103.366 308.572 113.349C302.846 98.5136 294.352 79.865 287.179 66C229.227 76.8154 173.792 95.8793 122.006 122.083C17.5548 292.342 -10.7604 458.371 3.39722 622.043C72.6751 677.848 139.814 711.748 205.819 733.931C222.116 709.737 236.651 684.018 249.173 656.913C225.325 647.138 202.484 635.076 180.902 621.073C186.628 616.497 192.229 611.714 197.639 606.792C329.273 673.204 472.297 673.204 602.358 606.792C607.832 611.714 613.432 616.497 619.095 621.073C597.449 635.145 574.546 647.207 550.699 656.983C563.22 684.018 577.692 709.807 594.052 734C660.121 711.817 727.322 677.918 796.6 622.043C813.212 432.305 768.222 267.801 677.676 121.945ZM267.106 521.386C227.591 521.386 195.185 481.594 195.185 433.137C195.185 384.68 226.899 344.819 267.106 344.819C307.314 344.819 339.719 384.61 339.027 433.137C339.089 481.594 307.314 521.386 267.106 521.386ZM532.891 521.386C493.376 521.386 460.971 481.594 460.971 433.137C460.971 384.68 492.683 344.819 532.891 344.819C573.098 344.819 605.504 384.61 604.812 433.137C604.812 481.594 573.098 521.386 532.891 521.386Z" fill="white"/>
</svg>
